<?xml version="1.0" encoding="utf-8"?>
<svg version="1.1" xmlns="http://www.w3.org/2000/svg" xmlns:xlink="http://www.w3.org/1999/xlink"
	 viewBox="0 0 512 512" style="enable-background:new 0 0 512 512;" xml:space="preserve">
<g>
	<path style="fill:#CFF09E;" d="M217.562,316.1h-0.57c-6.703,0-12.138,5.434-12.138,12.138v17.884H39.794l54.599,94.367
		c5.721,9.889,16.278,15.977,27.702,15.977h82.759v17.875c0,6.703,5.434,12.138,12.138,12.138h0.014c3.22,0,6.306-1.278,8.583-3.556
		l73.329-73.329c4.741-4.741,4.74-12.427-0.001-17.167l-46.318-46.304l-26.452-26.464C223.869,317.379,220.781,316.1,217.562,316.1z
		"/>
	<path style="fill:#CFF09E;" d="M225.126,195.671l0.279-0.486c3.341-5.812,1.337-13.233-4.477-16.572l-15.507-8.91l50.753-88.295
		l31.514-54.83v-1.053H185.967c-15.92,0-30.606,8.567-38.446,22.422l-37.763,66.758l-15.501-8.907
		c-5.811-3.338-13.228-1.337-16.569,4.474l-0.007,0.012c-1.605,2.791-2.036,6.106-1.196,9.215l9.755,36.129l17.27,63.981
		c1.746,6.472,8.409,10.303,14.882,8.555l99.375-26.821C220.874,200.502,223.522,198.463,225.126,195.671z"/>
</g>
<g>
	<path style="fill:#507C5C;" d="M504.158,261.281l-30.74-53.474l2.501-1.437c6.286-3.614,10.789-9.461,12.678-16.463
		c1.889-7.002,0.936-14.319-2.681-20.604c-3.613-6.279-9.453-10.777-16.448-12.666l-100.128-27.04
		c-6.997-1.89-14.316-0.941-20.601,2.672s-10.787,9.458-12.678,16.457l-26.821,99.36c-1.89,7-0.941,14.316,2.675,20.605l0.279,0.483
		c7.457,12.973,24.079,17.464,37.052,10.007l15.5-8.906c7.185-4.127,9.662-13.299,5.533-20.482
		c-4.127-7.185-13.299-9.662-20.482-5.533l-9.994,5.742l24.481-90.686l90.685,24.488l-9.512,5.469
		c-3.449,1.983-5.97,5.256-7.008,9.096c-1.038,3.841-0.506,7.938,1.478,11.387l38.217,66.48c5.149,8.957,5.155,20.088,0.014,29.049
		l-37.949,66.158l-38.606-67.16c-4.129-7.184-13.302-9.658-20.484-5.532c-7.185,4.129-9.659,13.3-5.532,20.484l47.335,82.343
		l-14.474,25.229c-5.185,9.038-14.879,14.652-25.3,14.652h-94.884l21.259-21.259c5.127-5.127,7.95-11.942,7.95-19.192
		s-2.824-14.065-7.952-19.194l-72.764-72.764c-5.127-5.13-11.944-7.955-19.197-7.955h-0.57c-14.966,0-27.141,12.175-27.141,27.141
		v2.881H48.208l-14.375-23.741c-5.128-8.961-5.124-20.071,0.026-29.027l47.611-82.822l7.556,27.988
		c3.19,11.816,13.962,20.07,26.194,20.071l0,0c2.385,0,4.766-0.315,7.08-0.941l99.372-26.821
		c7.002-1.889,12.847-6.393,16.455-12.672l0.284-0.494c3.613-6.285,4.561-13.602,2.671-20.601c-1.89-7-6.394-12.844-12.679-16.455
		l-2.497-1.434l71.067-123.644h28.815c10.409,0,20.098,5.607,25.286,14.631c2.776,4.827,7.826,7.529,13.021,7.529
		c2.536,0,5.107-0.644,7.464-1.998c7.183-4.129,9.659-13.3,5.53-20.484c-10.525-18.31-30.182-29.684-51.3-29.684h-38.102h-101.72
		c-21.286,0-41.022,11.51-51.504,30.039L104.136,94.17l-2.405-1.382c-4.111-2.361-8.783-3.611-13.512-3.611
		c-9.691,0-18.71,5.217-23.538,13.612c-0.009,0.017-0.02,0.035-0.03,0.054c-3.596,6.277-4.537,13.578-2.651,20.563l8.409,31.153
		L7.846,263.397c-10.49,18.248-10.46,40.902,0.081,59.121c0.05,0.087,0.101,0.173,0.153,0.258l19.666,32.48l53.662,92.745
		c8.376,14.474,23.966,23.466,40.688,23.466h67.756v2.872c0,14.966,12.175,27.141,27.141,27.141h0.014
		c7.25,0,14.065-2.824,19.192-7.949l22.062-22.064h124.891c21.139,0,40.807-11.39,51.326-29.727l19.106-33.307
		c0-0.002,0.001-0.002,0.001-0.002l50.601-88.217C514.615,302.034,514.604,279.451,504.158,261.281z M102.285,127.713
		c3.466,1.989,7.581,2.516,11.437,1.461c3.854-1.056,7.129-3.605,9.096-7.084l37.761-66.756
		c5.167-9.132,14.895-14.807,25.387-14.807h76.399l-69.952,121.699c-1.983,3.451-2.515,7.547-1.476,11.389s3.559,7.114,7.009,9.096
		l9.992,5.742l-90.691,24.478l-24.481-90.686L102.285,127.713z M219.857,467.433v-10.97c0-8.286-6.717-15.003-15.003-15.003h-82.759
		c-6.048,0-11.687-3.253-14.717-8.487l-41.571-71.85h139.046c8.286,0,15.003-6.717,15.003-15.003v-11.534l66.423,66.422
		l-44.844,44.844c-0.002,0.001-0.003,0.003-0.005,0.003L219.857,467.433z"/>
	<path style="fill:#507C5C;" d="M333.486,230.871c-5.314,0-10.462-2.828-13.186-7.82c-1.992-3.653-2.309-7.77-1.209-11.465
		l16.97-62.86c1.889-6.999,6.391-12.844,12.678-16.457c6.286-3.613,13.603-4.562,20.601-2.672l63.823,17.234
		c3.79,0.974,7.195,3.421,9.29,7.086c4.111,7.194,1.614,16.358-5.58,20.469c-3.443,1.967-7.529,2.495-11.36,1.461l-61.229-16.533
		l-16.322,60.461c-1.067,3.953-3.704,7.299-7.301,9.26C338.379,230.28,335.915,230.871,333.486,230.871z"/>
</g>
</svg>
