<?xml version="1.0" encoding="UTF-8" standalone="no"?>
<!-- Created with Inkscape (http://www.inkscape.org/) -->

<svg
   width="16.1mm"
   height="16.099998mm"
   viewBox="0 0 16.1 16.099998"
   version="1.1"
   id="svg1"
   xmlns="http://www.w3.org/2000/svg"
   xmlns:svg="http://www.w3.org/2000/svg">
  <defs
     id="defs1">
    <marker
       style="overflow:visible"
       id="marker2"
       refX="0"
       refY="0"
       orient="auto"
       markerWidth="1"
       markerHeight="1"
       viewBox="0 0 1 1"
       preserveAspectRatio="xMidYMid">
      <path
         transform="scale(0.45)"
         style="fill:context-fill;fill-rule:evenodd;stroke:context-stroke;stroke-width:2"
         d="M 5,0 C 5,2.76 2.76,5 0,5 -2.76,5 -5,2.76 -5,0 c 0,-2.76 2.3,-5 5,-5 2.76,0 5,2.24 5,5 z"
         id="path2" />
    </marker>
    <marker
       style="overflow:visible"
       id="ColoredDot"
       refX="0"
       refY="0"
       orient="auto"
       markerWidth="1"
       markerHeight="1"
       viewBox="0 0 1 1"
       preserveAspectRatio="xMidYMid">
      <path
         transform="scale(0.45)"
         style="fill:context-fill;fill-rule:evenodd;stroke:context-stroke;stroke-width:2"
         d="M 5,0 C 5,2.76 2.76,5 0,5 -2.76,5 -5,2.76 -5,0 c 0,-2.76 2.3,-5 5,-5 2.76,0 5,2.24 5,5 z"
         id="path20" />
    </marker>
  </defs>
  <g
     id="layer1"
     transform="translate(-29.950003,-14.95)">
    <path
       style="fill:none;stroke:#d40000;stroke-width:1;stroke-linecap:round;stroke-linejoin:bevel;stroke-dasharray:none;marker-start:url(#ColoredDot);marker-end:url(#marker2);paint-order:normal"
       d="m 34.000001,18.999999 8,4"
       id="path1" />
    <path
       style="fill:none;stroke:#d40000;stroke-width:1;stroke-linecap:round;stroke-linejoin:bevel;stroke-dasharray:none;marker-start:url(#marker2);paint-order:normal"
       d="m 34.000001,26.999999 7.999999,-4"
       id="path3" />
  </g>
  <g
     id="layer2"
     transform="translate(-29.950003,-14.95)">
    <path
       style="fill:none;fill-opacity:1;stroke:#8d8d8d;stroke-width:2.82839;stroke-linecap:butt;stroke-linejoin:miter;stroke-miterlimit:4;stroke-dasharray:none;stroke-opacity:1;paint-order:normal"
       d="m 40.000001,16.999999 v 12"
       id="path28-2" />
    <rect
       style="fill:none;fill-opacity:1;stroke:#000000;stroke-width:0.1;stroke-linecap:round;stroke-linejoin:bevel;stroke-dasharray:none;stroke-opacity:1;paint-order:normal"
       id="rect6"
       width="16"
       height="15.999999"
       x="30.000002"
       y="15" />
  </g>
</svg>
