<?xml version="1.0" encoding="UTF-8" standalone="no"?>
<!-- Created with Inkscape (http://www.inkscape.org/) -->

<svg
   width="16.100002mm"
   height="16.099998mm"
   viewBox="0 0 16.100002 16.099998"
   version="1.1"
   id="svg1"
   xmlns="http://www.w3.org/2000/svg"
   xmlns:svg="http://www.w3.org/2000/svg">
  <defs
     id="defs1">
    <marker
       style="overflow:visible"
       id="ColoredDot-9"
       refX="0"
       refY="0"
       orient="auto"
       markerWidth="1"
       markerHeight="1"
       viewBox="0 0 1 1"
       preserveAspectRatio="xMidYMid">
      <path
         transform="scale(0.45)"
         style="fill:context-fill;fill-rule:evenodd;stroke:context-stroke;stroke-width:2"
         d="M 5,0 C 5,2.76 2.76,5 0,5 -2.76,5 -5,2.76 -5,0 c 0,-2.76 2.3,-5 5,-5 2.76,0 5,2.24 5,5 z"
         id="path20-3" />
    </marker>
    <marker
       style="overflow:visible"
       id="marker2-6"
       refX="0"
       refY="0"
       orient="auto"
       markerWidth="1"
       markerHeight="1"
       viewBox="0 0 1 1"
       preserveAspectRatio="xMidYMid">
      <path
         transform="scale(0.45)"
         style="fill:context-fill;fill-rule:evenodd;stroke:context-stroke;stroke-width:2"
         d="M 5,0 C 5,2.76 2.76,5 0,5 -2.76,5 -5,2.76 -5,0 c 0,-2.76 2.3,-5 5,-5 2.76,0 5,2.24 5,5 z"
         id="path2-0" />
    </marker>
  </defs>
  <g
     id="layer1"
     transform="translate(-49.949998,-14.95)">
    <path
       style="fill:none;stroke:#568bff;stroke-width:1;stroke-linecap:round;stroke-linejoin:bevel;stroke-dasharray:none;stroke-opacity:1;marker-start:url(#ColoredDot-9);marker-end:url(#marker2-6);paint-order:normal"
       d="m 53.99999,18.999999 8,4"
       id="path3-1" />
    <path
       style="fill:none;stroke:#568bff;stroke-width:1;stroke-linecap:round;stroke-linejoin:bevel;stroke-dasharray:none;stroke-opacity:1;marker-start:url(#marker2-6);paint-order:normal"
       d="m 53.99999,26.999999 7.999999,-4"
       id="path4" />
  </g>
  <g
     id="layer2"
     transform="translate(-49.949998,-14.95)">
    <path
       style="fill:none;fill-opacity:1;stroke:#ec5c00;stroke-width:2;stroke-linecap:butt;stroke-linejoin:miter;stroke-miterlimit:4;stroke-dasharray:none;stroke-opacity:1;paint-order:normal"
       d="M 51.999999,18.000003 H 62.99999 v 5.999996 h -9.999989 v 4.000003 h 10.999991"
       id="path31-0" />
    <path
       style="fill:none;fill-opacity:1;stroke:#ec5c00;stroke-width:4.00001;stroke-linecap:butt;stroke-linejoin:miter;stroke-miterlimit:4;stroke-dasharray:none;stroke-opacity:1;paint-order:normal"
       d="m 53.999995,17.000001 v 4.000001"
       id="path32-2" />
    <rect
       style="fill:none;fill-opacity:1;stroke:#000000;stroke-width:0.1;stroke-linecap:round;stroke-linejoin:bevel;stroke-dasharray:none;stroke-opacity:1;paint-order:normal"
       id="rect7"
       width="16"
       height="15.999999"
       x="50"
       y="15" />
  </g>
</svg>
