<?xml version="1.0" encoding="UTF-8" standalone="no"?>
<!-- Created with Inkscape (http://www.inkscape.org/) -->

<svg
   width="16.099995mm"
   height="16.099998mm"
   viewBox="0 0 16.099995 16.099998"
   version="1.1"
   id="svg1"
   xmlns="http://www.w3.org/2000/svg"
   xmlns:svg="http://www.w3.org/2000/svg">
  <defs
     id="defs1">
    <marker
       style="overflow:visible"
       id="ColoredDot-5"
       refX="0"
       refY="0"
       orient="auto"
       markerWidth="1"
       markerHeight="1"
       viewBox="0 0 1 1"
       preserveAspectRatio="xMidYMid">
      <path
         transform="scale(0.45)"
         style="fill:context-fill;fill-rule:evenodd;stroke:context-stroke;stroke-width:2"
         d="M 5,0 C 5,2.76 2.76,5 0,5 -2.76,5 -5,2.76 -5,0 c 0,-2.76 2.3,-5 5,-5 2.76,0 5,2.24 5,5 z"
         id="path20-9" />
    </marker>
    <marker
       style="overflow:visible"
       id="marker2-2"
       refX="0"
       refY="0"
       orient="auto"
       markerWidth="1"
       markerHeight="1"
       viewBox="0 0 1 1"
       preserveAspectRatio="xMidYMid">
      <path
         transform="scale(0.45)"
         style="fill:context-fill;fill-rule:evenodd;stroke:context-stroke;stroke-width:2"
         d="M 5,0 C 5,2.76 2.76,5 0,5 -2.76,5 -5,2.76 -5,0 c 0,-2.76 2.3,-5 5,-5 2.76,0 5,2.24 5,5 z"
         id="path2-2" />
    </marker>
  </defs>
  <g
     id="layer1"
     transform="translate(-69.949995,-14.95)">
    <path
       style="fill:none;stroke:#00a592;stroke-width:1;stroke-linecap:round;stroke-linejoin:bevel;stroke-dasharray:none;stroke-opacity:1;marker-start:url(#ColoredDot-5);marker-end:url(#marker2-2);paint-order:normal"
       d="m 74,19.000002 8,4"
       id="path3-3" />
    <path
       style="fill:none;stroke:#00a592;stroke-width:1;stroke-linecap:round;stroke-linejoin:bevel;stroke-dasharray:none;stroke-opacity:1;marker-start:url(#marker2-2);paint-order:normal"
       d="m 74,27.000002 7.999999,-4"
       id="path4-6" />
  </g>
  <g
     id="layer2"
     transform="translate(-69.949995,-14.95)">
    <path
       style="fill:none;fill-opacity:1;stroke:#f02cff;stroke-width:2;stroke-linecap:butt;stroke-linejoin:miter;stroke-miterlimit:4;stroke-dasharray:none;stroke-opacity:1;paint-order:normal"
       d="M 73.000002,21 V 17.999999 H 83 V 21"
       id="path33-0" />
    <path
       style="fill:none;fill-opacity:1;stroke:#f02cff;stroke-width:2;stroke-linecap:butt;stroke-linejoin:miter;stroke-miterlimit:4;stroke-dasharray:none;stroke-opacity:1;paint-order:normal"
       d="M 82,22.000004 H 77.999996"
       id="path34-6" />
    <path
       style="fill:none;fill-opacity:1;stroke:#f02cff;stroke-width:2;stroke-linecap:butt;stroke-linejoin:miter;stroke-miterlimit:4;stroke-dasharray:none;stroke-opacity:1;paint-order:normal"
       d="m 83,22.999998 v 5.000004 H 71.999998"
       id="path35-3" />
    <path
       style="fill:none;fill-opacity:1;stroke:#f02cff;stroke-width:4.00001;stroke-linecap:butt;stroke-linejoin:miter;stroke-miterlimit:4;stroke-dasharray:none;stroke-opacity:1;paint-order:normal"
       d="m 74.000002,25.000002 v 3.999994"
       id="path36-2" />
    <rect
       style="fill:none;fill-opacity:1;stroke:#000000;stroke-width:0.1;stroke-linecap:round;stroke-linejoin:bevel;stroke-dasharray:none;stroke-opacity:1;paint-order:normal"
       id="rect8"
       width="16"
       height="15.999999"
       x="70"
       y="15" />
  </g>
</svg>
