<?xml version="1.0" encoding="UTF-8" standalone="no"?>
<!-- Created with Inkscape (http://www.inkscape.org/) -->

<svg
   width="16.100002mm"
   height="16.099998mm"
   viewBox="0 0 16.100002 16.099998"
   version="1.1"
   id="svg1"
   xmlns="http://www.w3.org/2000/svg"
   xmlns:svg="http://www.w3.org/2000/svg">
  <defs
     id="defs1">
    <marker
       style="overflow:visible"
       id="marker2-2-9"
       refX="0"
       refY="0"
       orient="auto"
       markerWidth="1"
       markerHeight="1"
       viewBox="0 0 1 1"
       preserveAspectRatio="xMidYMid">
      <path
         transform="scale(0.45)"
         style="fill:context-fill;fill-rule:evenodd;stroke:context-stroke;stroke-width:2"
         d="M 5,0 C 5,2.76 2.76,5 0,5 -2.76,5 -5,2.76 -5,0 c 0,-2.76 2.3,-5 5,-5 2.76,0 5,2.24 5,5 z"
         id="path2-2-3" />
    </marker>
    <marker
       style="overflow:visible"
       id="ColoredDot-5-1"
       refX="0"
       refY="0"
       orient="auto"
       markerWidth="1"
       markerHeight="1"
       viewBox="0 0 1 1"
       preserveAspectRatio="xMidYMid">
      <path
         transform="scale(0.45)"
         style="fill:context-fill;fill-rule:evenodd;stroke:context-stroke;stroke-width:2"
         d="M 5,0 C 5,2.76 2.76,5 0,5 -2.76,5 -5,2.76 -5,0 c 0,-2.76 2.3,-5 5,-5 2.76,0 5,2.24 5,5 z"
         id="path20-9-9" />
    </marker>
  </defs>
  <g
     id="layer1"
     transform="translate(-89.950007,-14.95)">
    <path
       style="fill:none;stroke:#b89500;stroke-width:1;stroke-linecap:round;stroke-linejoin:bevel;stroke-dasharray:none;stroke-opacity:1;marker-start:url(#ColoredDot-5-1);marker-end:url(#marker2-2-9);paint-order:normal"
       d="m 94.000002,18.999999 7.999998,4"
       id="path3-3-4" />
    <path
       style="fill:none;stroke:#b89500;stroke-width:1;stroke-linecap:round;stroke-linejoin:bevel;stroke-dasharray:none;stroke-opacity:1;marker-start:url(#marker2-2-9);paint-order:normal"
       d="m 94.000002,26.999999 7.999998,-4"
       id="path4-6-5" />
  </g>
  <g
     id="layer2"
     transform="translate(-89.950007,-14.95)">
    <path
       style="fill:none;fill-opacity:1;stroke:#b79dff;stroke-width:2;stroke-linecap:butt;stroke-linejoin:miter;stroke-miterlimit:4;stroke-dasharray:none;stroke-opacity:1;paint-order:normal"
       d="m 93.000008,17.000001 v 8.999993 H 104"
       id="path37-5" />
    <path
       style="fill:none;fill-opacity:1;stroke:#b79dff;stroke-width:2;stroke-linecap:butt;stroke-linejoin:miter;stroke-miterlimit:4;stroke-dasharray:none;stroke-opacity:1;paint-order:normal"
       d="m 99.000002,19.000006 v 9.999987"
       id="path38-4" />
    <path
       style="fill:none;fill-opacity:1;stroke:#b79dff;stroke-width:4.00001;stroke-linecap:butt;stroke-linejoin:miter;stroke-miterlimit:4;stroke-dasharray:none;stroke-opacity:1;paint-order:normal"
       d="m 94.000001,17.000001 v 4"
       id="path39-7" />
    <rect
       style="fill:none;fill-opacity:1;stroke:#000000;stroke-width:0.1;stroke-linecap:round;stroke-linejoin:bevel;stroke-dasharray:none;stroke-opacity:1;paint-order:normal"
       id="rect9"
       width="16"
       height="15.999999"
       x="90.000008"
       y="15" />
  </g>
</svg>
